# AST/ASF file generated using VICON BodyLanguage
# -----------------------------------------------
:version 1.10
:name VICON
:units
  mass 1.0
  length 0.45
  angle deg
:documentation
   .ast/.asf automatically generated from VICON data using
   VICON BodyBuilder and BodyLanguage model FoxedUp or BRILLIANT.MOD
:root
   order TX TY TZ RX RY RZ
   axis XYZ
   position 0 0 0  
   orientation 0 0 0 
:bonedata
  begin
     id 1 
     name lhipjoint
     direction 0.578396 -0.714046 0.394458 
     length 2.21935 
     axis 0 0 0  XYZ
  end
  begin
     id 2 
     name lfemur
     direction 0.34202 -0.939693 0  
     length 6.39105  
     axis 0 0 20  XYZ
    dof rx ry rz
    limits (-160.0 20.0)
           (-70.0 70.0)
           (-60.0 70.0)
  end
  begin
     id 3 
     name ltibia
     direction 0.34202 -0.939693 0   
     length 6.99037   
     axis 0 0 20   XYZ
    dof rx
    limits (-10.0 170.0)
  end
  begin
     id 4 
     name lfoot
     direction 0.0582372 -0.160005 0.985397   
     length 2.06111   
     axis -90 7.62852e-016 20   XYZ
    dof rx rz
    limits (-45.0 90.0)
           (-70.0 20.0)
  end
  begin
     id 5 
     name ltoes
     direction 1.53556e-011 -4.21875e-011 1   
     length 1.04074   
     axis -90 7.62852e-016 20   XYZ
    dof rx
    limits (-90.0 20.0)
  end
  begin
     id 6 
     name rhipjoint
     direction -0.558179 -0.726269 0.40121   
     length 2.182  
     axis 0 0 0  XYZ 
  end
  begin
     id 7 
     name rfemur
     direction -0.34202 -0.939693 0   
     length 6.51172   
     axis 0 0 -20   XYZ
    dof rx ry rz
    limits (-160.0 20.0)
           (-70.0 70.0)
           (-70.0 60.0)
  end
  begin
     id 8 
     name rtibia
     direction -0.34202 -0.939693 0   
     length 7.02607   
     axis 0 0 -20   XYZ
    dof rx
    limits (-10.0 170.0)
 end
 begin
     id 9 
     name rfoot
     direction -0.0788856 -0.216737 0.973038   
     length 1.96734  
     axis -90 -7.62852e-016 -20   XYZ
    dof rx rz
    limits (-45.0 90.0)
           (-20.0 70.0)
  end
  begin
     id 10 
     name rtoes
     direction -1.53567e-011 -4.21783e-011 1   
     length 0.990825   
     axis -90 -7.62852e-016 -20   XYZ
    dof rx
    limits (-90.0 20.0)
  end
  begin
     id 11 
     name lowerback
     direction 0.00668177 0.999323 -0.0361741   
     length 1.7655   
     axis 0 0 0   XYZ
    dof rx ry rz
    limits (-20.0 45.0)
           (-30.0 30.0)
           (-30.0 30.0)
  end
  begin
     id 12 
     name upperback
     direction -0.00222086 0.99851 0.0545167   
     length 1.74912   
     axis 0 0 0   XYZ
    dof rx ry rz
    limits (-20.0 45.0)
           (-30.0 30.0)
           (-30.0 30.0)
  end
  begin
     id 13 
     name thorax
     direction -0.00733971 0.997496 0.0703443   
     length 1.75715   
     axis 0 0 0   XYZ
    dof rx ry rz
    limits (-20.0 45.0)
           (-30.0 30.0)
           (-30.0 30.0)
  end
  begin
     id 14 
     name lowerneck
     direction 0.0279797 0.994795 0.0979765   
     length 1.46939   
     axis 0 0 0   XYZ
    dof rx ry rz
    limits (-20.0 45.0)
           (-30.0 30.0)
           (-30.0 30.0)
  end
  begin
     id 15 
     name upperneck
     direction 0.00339187 0.976776 -0.214238   
     length 1.48018   
     axis 0 0 0   XYZ
    dof rx ry rz
    limits (-20.0 45.0)
           (-30.0 30.0)
           (-30.0 30.0)
  end
  begin
     id 16
     name head
     direction -0.00263506 0.996603 -0.0823096  
     length 1.4976  
     axis 0 0 0   XYZ
    dof rx ry rz
    limits (-20.0 45.0)
           (-30.0 30.0)
           (-30.0 30.0)
  end
  begin
     id 17 
     name lclavicle
     direction 0.894044 0.44508 -0.0508781  
     length 3.03024  
     axis 0 0 0   XYZ
    dof ry rz
    limits (-20.0 10.0)
           (0.0 20.0)
  end
  begin
     id 18 
     name lhumerus
     direction 1 -4.48961e-011 -2.39475e-018   
     length 4.4661   
     axis 180 -30 -90   XYZ
    dof rx ry rz
    limits (-60.0 90.0)
           (-90.0 90.0)
           (-90.0 90.0)
  end
  begin
     id 19
     name lradius
     direction 1 -4.48961e-011 9.29328e-028   
     length 3.41414   
     axis 180 -30 -90   XYZ
    dof rx
    limits (-10.0 170.0)
  end
  begin
     id 20
     name lwrist
     direction 1 -4.48985e-011 1.53461e-026   
     length 1.70707   
     axis -1.09697e-014 90 90   XYZ
    dof ry
    limits (-180.0 0.0)
 end
  begin
     id 21 
     name lhand
     direction 1 -4.48966e-011 3.06923e-026   
     length 0.328298   
     axis -1.95843e-014 90 90   XYZ
    dof rx rz
    limits (-90.0 90.0)
           (-45.0 45.0)
  end
  begin
     id 22 
     name lfingers
     direction 1 -4.48893e-011 6.13845e-026   
     length 0.264682   
     axis -3.91686e-014 90 90   XYZ
    dof rx
    limits (0.0 90.0)
  end
  begin
     id 23
     name lthumb
     direction 0.707107 -6.34876e-011 0.707107   
     length 0.380032   
     axis -90 45 2.85299e-015   XYZ
    dof rx rz
    limits (-45.0 45.0)
           (-45.0 45.0)
  end
  begin
     id 24 
     name rclavicle
     direction -0.936955 0.347862 -0.0332887   
     length 3.26927  
     axis 0 0 0   XYZ 
    dof ry rz
    limits (-10.0 20.0)
           (-20.0 0.0)
  end
  begin
     id 25 
     name rhumerus
     direction -1 -4.4896e-011 1.78637e-018  
     length 4.40431   
     axis 180 30 90   XYZ
    dof rx ry rz
    limits (-90.0 60.0)
           (-90.0 90.0)
           (-90.0 90.0)
  end
  begin
     id 26 
     name rradius
     direction -1 -4.48955e-011 9.34036e-027   
     length 3.04688   
     axis 180 30 90   XYZ
    dof rx
    limits (-10.0 170.0)
  end
  begin
     id 27 
     name rwrist
     direction -1 -4.49011e-011 1.53461e-026   
     length 1.52344   
     axis -1.09697e-014 -90 -90   XYZ
    dof ry
    limits (-180.0 0.0)
  end
  begin
     id 28
     name rhand
     direction -1 -4.48834e-011 3.06923e-026   
     length 0.500489   
     axis -1.95843e-014 -90 -90   XYZ
    dof rx rz
    limits (-90.0 90.0)
           (-45.0 45.0)
  end
  begin
     id 29
     name rfingers
     direction -1 -4.48967e-011 6.13845e-026   
     length 0.403507   
     axis -3.91686e-014 -90 -90   XYZ
    dof rx
    limits (0.0 90.0)
  end
  begin
     id 30
     name rthumb
     direction -0.707107 -6.34826e-011 0.707107   
     length 0.579358   
     axis -90 -45 -2.85299e-015   XYZ
    dof rx rz
    limits (-45.0 45.0)
           (-45.0 45.0)
  end
:hierarchy
  begin
    root lhipjoint rhipjoint lowerback
    lhipjoint lfemur
    lfemur ltibia
    ltibia lfoot
    lfoot ltoes
    rhipjoint rfemur
    rfemur rtibia
    rtibia rfoot
    rfoot rtoes
    lowerback upperback
    upperback thorax
    thorax lowerneck lclavicle rclavicle
    lowerneck upperneck
    upperneck head
    lclavicle lhumerus
    lhumerus lradius
    lradius lwrist
    lwrist lhand lthumb
    lhand lfingers
    rclavicle rhumerus
    rhumerus rradius
    rradius rwrist
    rwrist rhand rthumb
    rhand rfingers
  end

#!OML:ASF H:\IndianDance\Patient Classification 1\Patient 1\Session 1\dancer.ASF
:FULLY-SPECIFIED
:DEGREES
2307
root 2.20616 14.302 -0.161951 1267.89 32.7774 -168.651
lowerback 12.0142 -2.42816 1.41401
upperback -5.00839 -2.65492 2.4618
thorax -12.1957 -1.20495 2.48282
lowerneck -16.6895 6.91022 6.8412
upperneck 17.8171 6.81278 6.48018
head 8.34136 4.48881 1.91183
rclavicle -1.61513e-014 3.18055e-015
rhumerus -24.362 11.3167 -24.3775
rradius 40.2293
rwrist -17.2523
rhand -9.28723 10.1589
rfingers 7.12502
rthumb 16.6699 -19.1453
lclavicle -1.61513e-014 3.18055e-015
lhumerus 43.0025 -21.0765 31.0606
lradius 30.0166
lwrist 11.8481
lhand -21.4121 17.763
lfingers 7.12502
lthumb 4.97643 -312.315
rfemur -24.3725 6.31747 39.3515
rtibia 55.1951
rfoot -23.9407 3.73946
rtoes 24.8037
lfemur -83.5813 12.9112 -39.3795
ltibia 92.5979
lfoot 4.30364 -6.88986
ltoes -20.9089
2308
root 2.18848 14.3274 -0.200836 1268.17 34.87 -167.912
lowerback 12.2328 -2.35772 1.81285
upperback -4.88554 -2.46042 2.65782
thorax -12.2041 -1.13229 2.43609
lowerneck -16.5368 7.06559 6.97849
upperneck 17.8737 7.01483 6.40437
head 8.34184 4.58346 1.88569
rclavicle 2.43014e-014 7.15625e-015
rhumerus -23.8521 12.0734 -24.4861
rradius 41.5186
rwrist -18.5255
rhand -9.20115 10.0349
rfingers 7.12502
rthumb 16.7528 -19.2623
lclavicle 2.43014e-014 7.15625e-015
lhumerus 44.1801 -22.7814 30.4341
lradius 31.7948
lwrist 13.5055
lhand -21.4036 17.1414
lfingers 7.12502
lthumb 4.98463 -312.937
rfemur -23.4507 6.51791 39.571
rtibia 54.5999
rfoot -23.2812 5.81026
rtoes 26.2075
lfemur -84.642 12.607 -41.3177
ltibia 94.1597
lfoot 5.05786 -8.13779
ltoes -19.953
2309
root 2.17097 14.356 -0.244292 1268.53 37.0551 -167.173
lowerback 12.4147 -2.2868 2.19806
upperback -4.78009 -2.2684 2.83507
thorax -12.2093 -1.06026 2.37502
lowerneck -16.4055 7.18947 7.04784
upperneck 17.9463 7.17808 6.38145
head 8.34708 4.66195 1.8842
rclavicle 4.53726e-014 -2.98177e-014
rhumerus -23.3401 12.8992 -24.5984
rradius 42.9331
rwrist -19.7606
rhand -9.10138 9.91617
rfingers 7.12502
rthumb 16.8488 -19.3729
lclavicle 4.53726e-014 -2.98177e-014
lhumerus 45.2831 -24.4207 29.6505
lradius 33.8397
lwrist 15.2673
lhand -21.2778 16.4041
lfingers 7.12502
lthumb 5.10611 -313.677
rfemur -22.5605 6.70891 39.7125
rtibia 53.9815
rfoot -22.5084 7.9951
rtoes 27.8538
lfemur -85.6351 12.2061 -43.0797
ltibia 95.6911
lfoot 6.10728 -9.437
ltoes -18.0098
2310
root 2.15389 14.3892 -0.292272 1268.98 39.3187 -166.465
lowerback 12.557 -2.22009 2.54922
upperback -4.69966 -2.09145 2.98198
thorax -12.2173 -0.994199 2.3018
lowerneck -16.307 7.27908 7.05537
upperneck 18.0413 7.29602 6.40748
head 8.36125 4.72146 1.90504
rclavicle 6.42571e-014 5.56597e-015
rhumerus -22.8316 13.8063 -24.7174
rradius 44.4676
rwrist -20.9674
rhand -8.97374 9.8039
rfingers 7.12502
rthumb 16.9717 -19.4746
lclavicle 6.42571e-014 5.56597e-015
lhumerus 46.3072 -26.0009 28.6757
lradius 36.1871
lwrist 17.1977
lhand -21.0898 15.6174
lfingers 7.12502
lthumb 5.28768 -314.469
rfemur -21.7199 6.88467 39.7402
rtibia 53.3381
rfoot -21.605 10.2692
rtoes 29.6878
lfemur -86.5576 11.696 -44.6686
ltibia 97.1595
lfoot 7.6277 -10.7306
ltoes -14.5269
2311
root 2.1383 14.4277 -0.344407 1269.49 41.6477 -165.796
lowerback 12.6658 -2.16227 2.84656
upperback -4.63832 -1.94026 3.10073
thorax -12.2241 -0.93793 2.23268
lowerneck -16.2656 7.32852 6.98547
upperneck 18.1618 7.35935 6.4903
head 8.38854 4.75743 1.95329
rclavicle -3.39922e-014 1.03368e-014
rhumerus -22.3181 14.7979 -24.8362
rradius 46.1148
rwrist -22.1512
rhand -8.81691 9.70047
rfingers 7.12502
rthumb 17.1227 -19.565
lclavicle -3.39922e-014 1.03368e-014
lhumerus 47.2463 -27.4881 27.5518
lradius 38.8197
lwrist 19.2568
lhand -20.8633 14.7956
lfingers 7.12502
lthumb 5.50631 -315.296
rfemur -20.9246 7.00762 39.6427
rtibia 52.6651
rfoot -20.5429 12.6468
rtoes 31.7433
lfemur -87.3989 11.0924 -46.0719
ltibia 98.5472
lfoot 9.86101 -11.8809
ltoes -8.68282
2312
root 2.12419 14.4727 -0.400359 1270.05 44.0375 -165.179
lowerback 12.7435 -2.11102 3.08126
upperback -4.59764 -1.81535 3.18239
thorax -12.2332 -0.891809 2.1634
lowerneck -16.2665 7.33684 6.87645
upperneck 18.2918 7.36444 6.60254
head 8.42376 4.76715 2.01249
rclavicle -5.4467e-014 -2.78299e-015
rhumerus -21.8166 15.872 -24.9609
rradius 47.8701
rwrist -23.3217
rhand -8.62897 9.58707
rfingers 7.12502
rthumb 17.3036 -19.6626
lclavicle -5.4467e-014 -2.78299e-015
lhumerus 48.12 -28.8778 26.2961
lradius 41.7055
lwrist 21.3894
lhand -20.6084 13.9101
lfingers 7.12502
lthumb 5.75247 -316.188
rfemur -20.1686 7.12159 39.4135
rtibia 51.9467
rfoot -19.2912 15.0475
rtoes 33.9621
lfemur -88.1545 10.4093 -47.2926
ltibia 99.8429
lfoot 12.9341 -12.6197
ltoes -0.0955833
2313
root 2.11193 14.5248 -0.460199 1270.64 46.4862 -164.621
lowerback 12.8094 -2.07155 3.24992
upperback -4.57423 -1.72446 3.22424
thorax -12.2526 -0.859555 2.09559
lowerneck -16.31 7.30439 6.7273
upperneck 18.4281 7.31097 6.75054
head 8.46584 4.75102 2.08485
rclavicle 1.45361e-014 -2.22639e-014
rhumerus -21.3179 17.0243 -25.0954
rradius 49.7206
rwrist -24.4786
rhand -8.40163 9.46773
rfingers 7.12502
rthumb 17.5224 -19.7626
lclavicle 1.45361e-014 -2.22639e-014
lhumerus 48.9291 -30.1699 24.9076
lradius 44.8159
lwrist 23.523
lhand -20.2873 13.0438
lfingers 7.12502
lthumb 6.06243 -317.063
rfemur -19.4284 7.20674 39.047
rtibia 51.1672
rfoot -17.8283 17.4476
rtoes 36.2623
lfemur -88.8092 9.68692 -48.3351
ltibia 101.045
lfoot 16.7977 -12.6134
ltoes 11.0141
2314
root 2.10171 14.5848 -0.523541 1271.27 48.996 -164.082
lowerback 12.8588 -2.04 3.3655
upperback -4.55488 -1.65989 3.23476
thorax -12.2649 -0.838083 2.02873
lowerneck -16.383 7.22872 6.54386
upperneck 18.5408 7.19721 6.9295
head 8.50312 4.70689 2.16596
rclavicle 3.18304e-014 2.5842e-014
rhumerus -20.8221 18.2315 -25.2349
rradius 51.6548
rwrist -25.6291
rhand -8.12495 9.34176
rfingers 7.12502
rthumb 17.7886 -19.8646
lclavicle 3.18304e-014 2.5842e-014
lhumerus 49.7061 -31.3551 23.3849
lradius 48.1046
lwrist 25.5625
lhand -19.7814 12.148
lfingers 7.12502
lthumb 6.55081 -317.973
rfemur -18.6814 7.29346 38.5776
rtibia 50.3069
rfoot -16.1275 19.7843
rtoes 38.5727
lfemur -89.3665 8.96026 -49.1681
ltibia 102.164
lfoot 21.0137 -11.7068
ltoes 22.5178
2315
root 2.09378 14.6532 -0.590281 1271.95 51.5639 -163.525
lowerback 12.9005 -2.02005 3.44967
upperback -4.54148 -1.62143 3.217
thorax -12.2785 -0.828581 1.95446
lowerneck -16.4684 7.11243 6.3351
upperneck 18.6183 7.02699 7.14077
head 8.5293 4.63692 2.25418
rclavicle -3.72721e-015 5.1684e-015
rhumerus -20.3318 19.4821 -25.3855
rradius 53.6627
rwrist -26.7758
rhand -7.79303 9.21694
rfingers 7.12502
rthumb 18.108 -19.9602
lclavicle -3.72721e-015 5.1684e-015
lhumerus 50.4598 -32.4416 21.7125
lradius 51.5349
lwrist 27.4307
lhand -18.9956 11.228
lfingers 7.12502
lthumb 7.30941 -318.918
rfemur -17.9174 7.38218 38.03
rtibia 49.3529
rfoot -14.1887 22.0017
rtoes 40.7518
lfemur -89.8375 8.271 -49.7913
ltibia 103.209
lfoot 24.9626 -10.297
ltoes 31.726
